<svg width="512" height="498" viewBox="0 0 512 498" fill="none" xmlns="http://www.w3.org/2000/svg">
<g clip-path="url(#clip0_150_74)">
<path fill-rule="evenodd" clip-rule="evenodd" d="M265.27 59.18C314.38 59.18 359.11 77.99 392.63 108.79L417.2 94.83L403.36 119.47C434.53 153.07 453.58 198.06 453.58 247.49C453.58 296.26 435.04 340.71 404.62 374.15L418.42 398.42L394.17 384.77C360.48 416.41 315.13 435.8 265.27 435.8C215.92 435.8 171.01 416.82 137.43 385.75L112.11 400.16L126.39 374.67C95.69 341.16 76.96 296.51 76.96 247.49C76.96 197.57 96.39 152.19 128.1 118.49L114.7 94.94L138.44 108.3C171.9 77.79 216.42 59.18 265.27 59.18ZM258.1 0L279.98 27.53V8.45C279.98 5.75 279.6 3.95 278.83 3C277.78 1.71 276.02 1.1 273.55 1.14V0H288.23V1.14C286.35 1.39 285.09 1.7 284.44 2.08C283.81 2.47 283.3 3.09 282.93 3.97C282.57 4.84 282.4 6.34 282.4 8.45V45.45H281.29L251.29 8.4V36.74C251.29 39.31 251.87 41.05 253.04 41.96C254.22 42.86 255.57 43.31 257.08 43.31H258.13V44.45H242.31V43.31C244.77 43.29 246.47 42.78 247.43 41.79C248.4 40.79 248.88 39.12 248.88 36.74V5.31L247.95 4.16C247.01 2.95 246.18 2.16 245.46 1.78C244.74 1.4 243.7 1.18 242.35 1.14V0H258.1ZM277.74 450.89L278.07 465.71H276.73C276.1 462 274.55 459.02 272.06 456.76C269.57 454.5 266.89 453.37 264.01 453.37C261.77 453.37 260.01 453.96 258.71 455.16C257.41 456.34 256.76 457.72 256.76 459.26C256.76 460.24 256.99 461.11 257.45 461.88C258.08 462.9 259.09 463.92 260.5 464.92C261.53 465.64 263.9 466.92 267.61 468.76C272.81 471.3 276.32 473.72 278.13 475.98C279.93 478.25 280.82 480.85 280.82 483.77C280.82 487.48 279.37 490.67 276.48 493.34C273.58 496.01 269.91 497.35 265.45 497.35C264.05 497.35 262.72 497.2 261.48 496.92C260.23 496.64 258.67 496.11 256.79 495.31C255.74 494.88 254.88 494.67 254.2 494.67C253.63 494.67 253.03 494.89 252.4 495.33C251.76 495.77 251.25 496.44 250.86 497.35H249.72V480.59H250.86C251.82 485.29 253.67 488.89 256.41 491.36C259.16 493.83 262.11 495.07 265.28 495.07C267.73 495.07 269.68 494.4 271.14 493.07C272.59 491.74 273.31 490.2 273.31 488.42C273.31 487.38 273.04 486.37 272.48 485.38C271.92 484.4 271.08 483.47 269.94 482.58C268.8 481.7 266.79 480.55 263.91 479.13C259.86 477.15 256.96 475.45 255.19 474.05C253.44 472.66 252.09 471.09 251.14 469.37C250.19 467.64 249.72 465.74 249.72 463.67C249.72 460.13 251.01 457.12 253.62 454.62C256.21 452.13 259.48 450.89 263.44 450.89C264.88 450.89 266.28 451.06 267.63 451.4C268.65 451.67 269.91 452.15 271.38 452.86C272.86 453.56 273.88 453.91 274.48 453.91C275.05 453.91 275.49 453.74 275.82 453.39C276.14 453.05 276.46 452.21 276.73 450.89H277.74ZM488.53 227.82V245.92H489.42C492.25 245.92 494.29 245.03 495.56 243.27C496.83 241.5 497.64 238.9 497.99 235.46H499.26V258.72H497.99C497.73 256.19 497.17 254.11 496.34 252.5C495.49 250.88 494.51 249.79 493.4 249.23C492.28 248.68 490.66 248.4 488.53 248.4V260.89C488.53 263.34 488.64 264.82 488.85 265.37C489.05 265.92 489.44 266.37 490.01 266.71C490.58 267.06 491.5 267.24 492.76 267.24H495.42C499.56 267.24 502.89 266.27 505.4 264.36C507.9 262.45 509.7 259.54 510.78 255.6H512L510 269.72H471.64V268.58H473.1C474.39 268.58 475.43 268.34 476.21 267.88C476.78 267.57 477.22 267.05 477.52 266.3C477.75 265.77 477.88 264.39 477.88 262.14V232.84C477.88 230.82 477.82 229.58 477.71 229.11C477.5 228.34 477.1 227.75 476.5 227.34C475.68 226.72 474.55 226.41 473.1 226.41H471.64V225.27H508.78V238.41H507.51C506.88 235.19 505.99 232.89 504.85 231.49C503.71 230.09 502.1 229.07 500.01 228.41C498.79 228.02 496.51 227.82 493.16 227.82H488.53ZM65.84 224.76V225.9C65.02 225.97 64.31 226.21 63.74 226.61C63.17 227.02 62.67 227.64 62.22 228.46C62.1 228.73 61.42 230.43 60.19 233.56L46.28 270.22H45.08L34.09 241.29L21.91 270.22H20.75L6.09 233.94C4.6 230.26 3.57 228.03 2.98 227.26C2.39 226.49 1.4 226.04 0 225.9V224.76H19.25V225.9C17.7 225.95 16.67 226.18 16.16 226.62C15.64 227.05 15.38 227.58 15.38 228.22C15.38 229.06 15.92 230.83 16.99 233.55L25.7 255.11L32.75 238.08L30.98 233.49C29.98 230.91 29.2 229.18 28.66 228.32C28.11 227.46 27.48 226.83 26.77 226.47C26.07 226.09 25.03 225.9 23.65 225.9V224.76H44.99V225.9C43.49 225.93 42.41 226.05 41.75 226.28C41.29 226.42 40.94 226.69 40.68 227.05C40.41 227.41 40.29 227.83 40.29 228.29C40.29 228.8 40.77 230.35 41.75 232.96L49.83 253.99L57.06 234.96C57.82 232.98 58.29 231.62 58.47 230.89C58.65 230.16 58.73 229.49 58.73 228.88C58.73 227.97 58.42 227.27 57.81 226.74C57.21 226.23 56.03 225.95 54.31 225.9V224.76H65.84ZM226.66 309.89L169.83 342.22L203.07 283.17L220.64 288L98.56 254.44C100.33 297.76 118.61 336.82 147.28 365.48C175.38 393.59 213.49 411.71 255.8 414.08L226.66 309.89ZM203.37 208.04L171.44 151.91L227.54 183.49L255.74 80.91C213.45 83.29 175.37 101.41 147.28 129.5C119.33 157.45 101.25 195.28 98.72 237.31L222.24 202.77L203.37 208.04ZM302.43 184.61L360.05 151.83L328.03 208.73L307.6 203.11L431.81 237.25C429.26 195.24 411.2 157.44 383.26 129.5C354.86 101.1 316.25 82.89 273.41 80.84L302.43 184.61ZM328.01 283.46L360.82 341.13L302.55 308.33L273.47 414.15C316.29 412.07 354.87 393.87 383.26 365.48C411.94 336.8 430.22 297.72 431.98 254.38L328.01 283.46ZM264.22 245.95L264.61 246.36L227.89 285.63L83.53 245.95H264.22ZM266.32 245.78L265.92 245.38L277.41 233.09L264.12 245.87L224.85 209.15L264.53 64.79V245.42L277.72 232.77L302.64 206.11L447 245.78H266.32ZM265.1 249.11L304.37 285.83L269.06 414.3L264.69 430.19V249.56L265.1 249.11Z" fill="white"/>
</g>
<defs>
<clipPath id="clip0_150_74">
<rect width="512" height="497.35" fill="white"/>
</clipPath>
</defs>
</svg>
